<svg width="110" height="95" viewBox="0 0 110 95" fill="none" xmlns="http://www.w3.org/2000/svg">
<path d="M79.1516 40.2484L78.2365 38.7441L65.4258 17.6973L74.2618 38.466L54.9886 44.8117L53.0298 44.167C52.1433 43.8763 51.2569 43.5855 50.3704 43.2821L47.7111 42.3973L46.3814 41.9549L45.0517 41.4998L39.733 39.6922C38.5749 39.3003 37.4311 38.8958 36.2873 38.466L44.923 17.7099L31.9122 38.6809L30.8113 40.4633L33.0274 41.07C34.8432 41.5756 36.6304 42.1571 38.4033 42.7512L39.1325 43.004L37.4168 47.0491L36.6447 48.8567L38.5463 49.1727L40.2191 49.4508L38.918 53.0534L38.5177 54.1785L39.4613 54.7726L43.7792 57.503L43.193 64.0256L54.9171 76.3124L67.1702 64.0383L66.5697 57.503L70.9161 54.7726L71.8598 54.1785L71.4594 53.0534L70.1584 49.4508L71.8312 49.1727L73.7328 48.8567L72.9607 47.0491L71.2021 42.9661L77.2357 40.9057L79.1516 40.2484ZM68.8859 46.8595L59.5066 51.1953C59.8927 52.2444 61.1366 52.8512 62.3519 52.5984L62.5234 52.5605C63.2669 52.3961 63.8817 51.9411 64.1676 51.309L64.6252 50.3483L66.4696 50.0449L67.5991 53.1546L57.5622 63.0396L57.4907 63.0902C57.4907 63.0902 57.4907 63.0902 57.505 63.1028L57.5764 63.166H57.5907C58.3485 63.8107 59.5209 63.8866 60.3788 63.3304L60.5932 63.1913C61.1508 62.8247 61.4797 62.2559 61.4797 61.6365V60.7137L63.4385 59.4876L63.7673 63.027L55.0029 71.7997L46.6531 63.0396L46.9819 59.4749L48.9264 60.7011V61.6492C48.9264 62.2559 49.2552 62.8374 49.8128 63.204L50.0273 63.343C50.8852 63.8992 52.0719 63.8234 52.8296 63.166L52.8582 63.1408C52.8725 63.1281 52.8868 63.1155 52.9011 63.1028L42.807 53.1546L43.9365 50.0449L45.7809 50.3483L46.2384 51.309C46.5244 51.9284 47.1392 52.3961 47.8827 52.5605L48.0542 52.5984C49.2695 52.8638 50.5134 52.2444 50.8994 51.1953L41.5202 46.8468L42.6497 44.1796L43.7649 44.5589L45.0946 45.0139L46.4243 45.469L49.0694 46.3918C49.9558 46.6951 50.828 47.0112 51.7144 47.3145L54.3595 48.25L55.0458 48.4901L55.7463 48.25L67.7992 44.1291L68.8859 46.8595Z" fill="white"/>
<path d="M16.8569 22.7914C15.9562 22.8673 15.0983 22.6144 14.2834 22.0203L13.9545 21.7802C13.1396 21.186 12.6963 20.4908 12.6248 19.6944C12.5534 18.8981 12.9823 18.0132 13.9116 17.0146L14.2405 16.6606C14.7695 16.0918 15.2842 15.6368 15.7846 15.2955C16.285 14.9542 16.6711 14.7266 16.9427 14.6255L18.3439 15.6494C18.0294 15.8264 17.6147 16.1297 17.1 16.5216C16.5853 16.9261 16.1278 17.3306 15.7274 17.7478C15.2556 18.2534 14.9983 18.6958 14.9411 19.075C14.8839 19.4669 15.0697 19.8082 15.4844 20.1242L15.8132 20.3644C16.1278 20.5919 16.428 20.731 16.6997 20.7436C16.9713 20.7689 17.243 20.693 17.5003 20.5287C17.772 20.3644 18.0722 20.0989 18.4154 19.7197C18.8443 19.2646 19.2161 18.7717 19.5306 18.2407C19.8451 17.7098 20.0596 17.2927 20.174 17.002L21.6752 18.1017C21.3464 19.0118 20.7602 19.922 19.9023 20.8195L19.5735 21.1734C18.6727 22.172 17.7577 22.7029 16.8569 22.7914Z" fill="white"/>
<path d="M22.7761 11.8067C22.676 11.8825 22.6188 11.9457 22.6188 12.0215C22.6188 12.0847 22.6474 12.1606 22.7332 12.2491L24.3917 13.9556C24.4775 14.0441 24.549 14.0946 24.6348 14.0946C24.7063 14.0946 24.7921 14.0693 24.8922 13.9935L25.5212 13.5132L26.7937 14.8151L23.1478 17.5961L21.8754 16.2941L22.5044 15.8138C22.6045 15.7379 22.6617 15.6747 22.6617 15.5989C22.6617 15.5357 22.6331 15.4598 22.5473 15.3713L20.8888 13.6396C20.803 13.5511 20.7315 13.5131 20.6458 13.5005C20.5743 13.5005 20.4885 13.5258 20.3884 13.6016L19.7593 14.082L18.4868 12.78L22.1327 9.99902L23.4052 11.301L22.7761 11.8067Z" fill="white"/>
<path d="M27.2512 8.94966L24.6348 10.3654L23.6196 8.8991L30.8685 4.98047L31.8837 6.4468L29.3244 7.83728L32.0409 11.7559L29.9678 12.8809L27.2512 8.94966Z" fill="white"/>
<path d="M37.1023 4.57591C36.9879 4.61383 36.9021 4.67704 36.8735 4.7276C36.8449 4.7908 36.8592 4.86665 36.9021 4.98041L37.8601 7.06614C37.903 7.16726 37.9744 7.24311 38.0316 7.26839C38.1031 7.29367 38.1889 7.28103 38.3176 7.24311L39.0897 6.96501L39.8188 8.55775L35.358 10.1631L34.6288 8.57039L35.4009 8.29229C35.5153 8.25437 35.601 8.19116 35.6296 8.1406C35.6582 8.0774 35.6439 8.00155 35.601 7.88779L34.6431 5.80206C34.6002 5.70094 34.5287 5.62509 34.4715 5.59981C34.4 5.57453 34.3143 5.58717 34.1856 5.62509L33.4135 5.90319L32.6843 4.31045L37.1452 2.70508L37.8744 4.29781L37.1023 4.57591Z" fill="white"/>
<path d="M44.0369 3.02093C44.0798 2.95773 44.0941 2.91981 44.0941 2.88188C44.0798 2.83132 44.0083 2.80604 43.8796 2.83132L40.1336 3.56448L39.719 1.88326L47.311 0.404297L47.6256 1.66837L44.4515 5.44796C44.4086 5.49852 44.3943 5.54908 44.3943 5.57436C44.3943 5.59965 44.4229 5.62493 44.4658 5.63757C44.5087 5.65021 44.5516 5.65021 44.6231 5.63757L48.9124 4.80328L49.327 6.4845L41.0201 8.08987L40.7055 6.8258C42.8645 4.38613 43.9797 3.10942 44.0369 3.02093Z" fill="white"/>
<path d="M50.2991 6.44678L50.1704 0.126408L58.1628 0L58.1914 1.71914L52.987 1.79499C52.744 1.79499 52.6296 1.90875 52.6296 2.13629V2.27534C52.6296 2.49023 52.7583 2.59135 53.0013 2.59135L56.9904 2.52815L57.019 3.81751L53.0299 3.88071C52.9156 3.88071 52.8155 3.90599 52.7583 3.95655C52.7011 4.00712 52.6725 4.0956 52.6725 4.20937V4.36106C52.6725 4.57595 52.8012 4.67708 53.0442 4.67708L58.2486 4.60123L58.2772 6.32038L50.2991 6.44678Z" fill="white"/>
<path d="M62.924 0.55609L65.8693 4.44944C65.9265 4.52529 65.9694 4.56321 66.0123 4.57585C66.0552 4.58849 66.0837 4.55057 66.098 4.48736L66.8129 1.21341L69.2006 1.61791L67.8424 7.82452L65.8264 7.48322L62.8525 3.52667C62.7953 3.46346 62.7524 3.42554 62.7095 3.4129C62.6666 3.40026 62.638 3.42554 62.6237 3.48874L61.8945 6.81326L59.5068 6.40876L60.8651 0.202148L62.924 0.55609Z" fill="white"/>
<path d="M75.0626 6.26986C76.378 6.76285 77.2501 7.25584 77.6933 7.73619C78.1366 8.21654 78.2366 8.73481 77.965 9.26572C77.7505 9.70814 77.4646 10.0242 77.1071 10.2391C76.7497 10.4413 76.2636 10.5298 75.6488 10.4792C75.034 10.4287 74.2476 10.2264 73.304 9.87247L72.632 9.61966C71.817 9.31628 71.1164 9.00026 70.5016 8.69688C69.9011 8.39351 69.4722 8.14069 69.2148 7.96372L69.9726 6.39627C70.3444 6.6238 70.8305 6.88926 71.4596 7.20528C72.0887 7.5213 72.7321 7.79939 73.3897 8.05221L74.0617 8.30502C74.6336 8.51991 75.034 8.63368 75.277 8.64632C75.5058 8.65896 75.6631 8.59576 75.7489 8.43143C75.8203 8.29238 75.7632 8.14069 75.5916 7.989C75.4057 7.83731 75.0483 7.66034 74.4907 7.44545L73.2611 6.97774C72.1887 6.57324 71.4596 6.14345 71.0735 5.68839C70.6875 5.23332 70.6303 4.74033 70.8877 4.19678C71.5311 2.85686 73.0895 2.65461 75.5487 3.59002L76.2207 3.84284C77.0642 4.15886 77.7219 4.44959 78.1938 4.71505C78.6656 4.9805 79.0087 5.18276 79.1946 5.34709L78.4368 6.92718C77.3931 6.2825 76.4065 5.78951 75.4629 5.42293L74.7909 5.17012C73.8187 4.80353 73.2754 4.76561 73.1324 5.04371C73.0752 5.14483 73.0895 5.24596 73.1324 5.33445C73.1896 5.42293 73.3183 5.51142 73.5041 5.62518C73.7043 5.72631 73.9902 5.85272 74.3763 6.00441L75.0626 6.26986Z" fill="white"/>
<path d="M81.8542 13.0325C81.7541 12.2362 82.0401 11.4777 82.6978 10.7572L82.9694 10.4665C83.6414 9.74595 84.4135 9.34145 85.3142 9.2656C86.215 9.18976 87.2301 9.55634 88.3596 10.378L88.76 10.6687C89.8752 11.4777 90.49 12.2741 90.5901 13.0705C90.6901 13.8668 90.4042 14.6253 89.7465 15.3458L89.4748 15.6365C88.8171 16.3571 88.0308 16.7489 87.1157 16.8248C86.2007 16.9006 85.1999 16.534 84.0846 15.7377L83.6843 15.4469C82.5691 14.6379 81.9543 13.8289 81.8542 13.0325ZM86.5581 14.8781C86.9156 14.8528 87.273 14.6632 87.6019 14.2966L87.8735 14.0059C88.2024 13.6393 88.3453 13.298 88.2881 12.982C88.2309 12.666 87.9879 12.3373 87.5304 12.0086L87.13 11.7179C86.6868 11.4019 86.2722 11.2376 85.9004 11.2502C85.5287 11.2628 85.1713 11.4525 84.8424 11.8064L84.5708 12.0971C84.2419 12.4637 84.0989 12.805 84.1561 13.1337C84.2133 13.4623 84.4707 13.791 84.9139 14.107L85.3142 14.3977C85.7861 14.739 86.2007 14.9034 86.5581 14.8781Z" fill="white"/>
<path d="M93.6209 14.6758L98.6823 20.1492L97.181 21.2363L93.8926 17.6843C93.8068 17.5958 93.7353 17.5452 93.6495 17.5452C93.5637 17.5326 93.478 17.5705 93.3636 17.659L92.9918 17.9371C92.8918 18.0129 92.8203 18.0888 92.8203 18.1646C92.806 18.2405 92.8489 18.3163 92.9204 18.4048L95.451 21.1352L94.2357 22.0201L91.7051 19.2897C91.6336 19.2012 91.5478 19.1632 91.462 19.1506C91.3762 19.138 91.2904 19.1759 91.176 19.2517L89.6462 20.3641L88.1021 18.6955L93.6209 14.6758Z" fill="white"/>
<path d="M8.79305 61.4341C8.56429 61.3709 8.39271 61.2951 8.26404 61.1939C8.19255 61.9398 7.73502 62.4201 6.86287 62.6224C6.21947 62.774 5.63327 62.6856 5.08996 62.3569C4.54665 62.0282 4.14632 61.4215 3.87466 60.5493L2.48779 56.0365L9.16478 54.4312L10.3944 58.413C10.6946 59.3863 10.7518 60.0942 10.566 60.5619C10.3801 61.017 10.0512 61.3077 9.56512 61.4341C9.29346 61.4973 9.02181 61.4973 8.79305 61.4341ZM5.87633 60.5745C5.99071 60.6504 6.14799 60.663 6.31956 60.6251C6.50543 60.5872 6.61981 60.4987 6.6913 60.3849C6.74849 60.2712 6.74849 60.1068 6.6913 59.892L6.01931 57.7051C5.99071 57.5913 5.93352 57.5155 5.86203 57.4776C5.79055 57.4396 5.69046 57.4396 5.59038 57.4649L5.19005 57.5661C5.07566 57.5913 5.00418 57.6419 4.96128 57.7051C4.91839 57.7683 4.91839 57.8568 4.94698 57.9706L5.61897 60.1574C5.66187 60.347 5.74765 60.4987 5.87633 60.5745ZM7.8923 59.5254C8.00668 59.6012 8.16395 59.6139 8.34982 59.5759C8.70726 59.4874 8.82164 59.2473 8.69296 58.8301L8.17825 57.1615C8.12106 56.9593 7.96378 56.8835 7.74932 56.934L7.36328 57.0225C7.13452 57.0731 7.04874 57.2121 7.10593 57.4144L7.62064 59.0829C7.67783 59.2978 7.77792 59.4495 7.8923 59.5254Z" fill="white"/>
<path d="M6.76293 65.5804C7.02029 64.8346 7.60649 64.2658 8.52154 63.8487L11.7814 62.3823L12.8394 64.2279L9.57957 65.6942C9.12204 65.8965 8.85039 66.1619 8.7646 66.4653C8.66452 66.7813 8.7503 67.1479 9.00766 67.5903L9.12204 67.7926C9.3794 68.2476 9.67965 68.5257 10.0085 68.6395C10.3373 68.7406 10.7377 68.6901 11.1952 68.4878L14.4551 67.0215L15.5131 68.867L12.2532 70.3334C11.3525 70.7379 10.4803 70.8137 9.65105 70.5735C8.80749 70.3207 8.07831 69.6508 7.44922 68.5637L7.33484 68.3614C6.67715 67.249 6.49128 66.3262 6.76293 65.5804Z" fill="white"/>
<path d="M17.8293 71.5848L14.1548 74.1382C14.0547 74.2014 13.9975 74.2772 13.9832 74.3404C13.9689 74.4036 13.9975 74.4795 14.0833 74.568L16.9 77.7534L15.4273 78.7773L10.9521 73.721L16.3852 69.9541L17.8293 71.5848Z" fill="white"/>
<path d="M23.3911 77.0458L20.2742 80.1301C20.1884 80.2186 20.1456 80.2818 20.1456 80.3576C20.1456 80.4208 20.1884 80.4967 20.2885 80.5725L23.7057 83.265L22.4618 84.5038L17.043 80.2186L21.6325 75.6553L23.3911 77.0458Z" fill="white"/>
<path d="M30.2395 83.6697C30.1394 83.6065 30.0394 83.5812 29.9822 83.6065C29.9107 83.6191 29.8392 83.6697 29.782 83.7708L28.4523 85.6037C28.3808 85.6922 28.3522 85.7807 28.3808 85.8312C28.3951 85.8944 28.4523 85.9577 28.5667 86.0082L29.253 86.4001L28.2379 87.8032L24.3203 85.5911L25.3354 84.1879L26.0217 84.5798C26.1218 84.643 26.2219 84.6683 26.2791 84.643C26.3506 84.6304 26.4221 84.5798 26.4793 84.4787L27.8089 82.6458C27.8804 82.5573 27.909 82.4688 27.8804 82.4182C27.8661 82.355 27.8089 82.2918 27.6946 82.2413L27.0083 81.8494L28.0234 80.4463L31.941 82.6584L30.9258 84.0615L30.2395 83.6697Z" fill="white"/>
<path d="M30.6541 89.0544L33.3706 83.4419L40.4765 86.1217L39.733 87.6513L35.1006 85.9068C34.8861 85.831 34.7289 85.8816 34.6288 86.0838L34.5716 86.2102C34.4858 86.3998 34.543 86.5389 34.7575 86.6147L38.3033 87.9546L37.7457 89.105L34.1999 87.765C34.0855 87.7271 33.9997 87.7145 33.9282 87.7398C33.8567 87.765 33.7852 87.8282 33.7423 87.9294L33.6708 88.0684C33.5851 88.258 33.6423 88.3971 33.8567 88.4729L38.4891 90.2173L37.7457 91.7469L30.6541 89.0544Z" fill="white"/>
<path d="M43.4363 86.7665C43.9225 89.6739 44.1798 91.2034 44.2227 91.3298C44.2513 91.431 44.2942 91.4815 44.3657 91.4942C44.4372 91.5068 44.5087 91.4689 44.5516 91.393L47.3539 87.4997L49.8417 87.9548L45.4666 93.3776L42.4641 92.8215L40.8914 86.2988L43.4363 86.7665Z" fill="white"/>
<path d="M50.6135 94.0347L50.7279 87.9292L58.4629 88.043L58.4343 89.6989L53.4016 89.6231C53.1728 89.6231 53.0441 89.7242 53.0441 89.9391V90.0781C53.0441 90.2804 53.1585 90.3942 53.3873 90.3942L57.2476 90.4447L57.219 91.6961L53.3587 91.6456C53.2443 91.6456 53.1585 91.6709 53.087 91.7088C53.0298 91.7593 53.0012 91.8352 53.0012 91.949V92.1007C53.0012 92.3029 53.1156 92.4167 53.3444 92.4167L58.3771 92.4925L58.3485 94.1485L50.6135 94.0347Z" fill="white"/>
<path d="M68.5858 91.6328C68.8574 91.8983 69.029 92.2143 69.1005 92.5682L66.6842 92.9601C66.384 92.4292 65.9836 92.0247 65.4403 91.7718C64.9113 91.519 64.1964 91.4685 63.2957 91.6075L62.8381 91.6834L63.2242 93.5163L60.908 93.8955L59.6641 87.8911L64.0963 87.1706C65.2115 86.9936 66.0694 87.0442 66.6556 87.3223C67.2418 87.613 67.6135 88.106 67.7565 88.8266C67.8423 89.2058 67.7994 89.5597 67.6421 89.8757C67.4849 90.1918 67.2132 90.4825 66.8415 90.71C67.0988 90.7732 67.3419 90.8491 67.5707 90.9376C67.971 91.1398 68.3284 91.3673 68.5858 91.6328ZM62.4807 89.9642C62.5093 90.078 62.5522 90.1412 62.6094 90.1918C62.6666 90.2297 62.7667 90.2423 62.8953 90.217L64.6682 89.9263C65.0114 89.8757 65.2258 89.7872 65.3402 89.6735C65.4546 89.5597 65.4832 89.408 65.4546 89.2184C65.4117 89.0288 65.3259 88.9024 65.1686 88.8392C65.0257 88.776 64.7826 88.776 64.4395 88.8266L62.6666 89.1173C62.5379 89.1426 62.4664 89.1805 62.4092 89.2311C62.3663 89.2816 62.352 89.3701 62.3806 89.4839L62.4807 89.9642Z" fill="white"/>
<path d="M76.2207 85.3002C76.1063 85.3508 76.0348 85.4013 76.0062 85.4645C75.9776 85.5277 75.9919 85.6036 76.0491 85.7047L77.0642 87.6893C77.1214 87.7904 77.1786 87.8536 77.2501 87.8789C77.3216 87.9042 77.4074 87.8916 77.5217 87.841L78.2652 87.5503L79.0373 89.0671L74.8052 90.7484L74.0331 89.2315L74.7766 88.9407C74.891 88.8902 74.9625 88.8396 74.9911 88.7764C75.0197 88.7132 75.0054 88.6374 74.9482 88.5362L73.933 86.5516C73.8759 86.4505 73.8187 86.3873 73.7472 86.362C73.6757 86.3367 73.5899 86.3494 73.4755 86.3999L72.732 86.6907L71.96 85.1738L76.1921 83.4673L76.9641 84.9842L76.2207 85.3002Z" fill="white"/>
<path d="M82.7546 82.7718C83.8984 82.0892 84.7991 81.71 85.4854 81.6468C86.1574 81.5836 86.6864 81.7859 87.0439 82.2536C87.3441 82.6328 87.4871 83.012 87.4871 83.3786C87.4871 83.7452 87.3155 84.137 86.9438 84.5542C86.5721 84.9713 85.9858 85.4264 85.1566 85.9194L84.5704 86.2733C83.8698 86.6905 83.2121 87.0444 82.6116 87.3225C82.0111 87.6006 81.5679 87.7776 81.2676 87.8661L80.2239 86.5009C80.6242 86.3492 81.1246 86.1343 81.7537 85.8562C82.3828 85.5781 82.969 85.2621 83.5409 84.9081L84.1272 84.5542C84.6276 84.2508 84.9421 84.0233 85.0851 83.8589C85.2281 83.6946 85.2424 83.5429 85.128 83.4165C85.0279 83.2901 84.8706 83.2522 84.6419 83.3027C84.4131 83.3533 84.0557 83.5303 83.5695 83.821L82.4972 84.4657C81.5679 85.0219 80.7958 85.3253 80.181 85.3632C79.5662 85.4011 79.0801 85.1862 78.7227 84.7185C77.8362 83.5556 78.451 82.3294 80.5956 81.0527L81.1818 80.6988C81.911 80.2563 82.5258 79.9403 83.0119 79.7381C83.4981 79.5358 83.8698 79.3968 84.1129 79.3462L85.1709 80.724C84.0414 81.1285 83.0548 81.5836 82.2399 82.0766L81.6537 82.4305C80.8101 82.9362 80.4813 83.3154 80.6671 83.5556C80.7386 83.644 80.8244 83.6946 80.9388 83.7072C81.0532 83.7072 81.1961 83.6693 81.3963 83.5935C81.5965 83.505 81.8681 83.366 82.197 83.1637L82.7546 82.7718Z" fill="white"/>
<path d="M86.9295 76.6538L90.2323 79.5865C90.3181 79.6623 90.4038 79.7002 90.4753 79.7129C90.5468 79.7129 90.6326 79.6749 90.7184 79.5991L93.964 76.7423L95.2936 77.9179L90.1465 82.4433L85.271 78.1201L86.9295 76.6538Z" fill="white"/>
<path d="M93.6064 69.6509L101.156 70.8265L99.6115 72.7352C99.0253 72.5835 98.6678 72.4951 98.5534 72.4824C98.3819 72.4571 98.2246 72.533 98.0816 72.6973L96.3945 74.783C96.323 74.8842 96.2658 74.96 96.2515 75.0358C96.2372 75.1117 96.2515 75.1875 96.3087 75.2634L96.8663 76.085L95.3651 77.9432L91.6763 72.0021L93.6064 69.6509ZM96.4374 72.0273C96.4088 72.0147 96.3802 72.0021 96.323 71.9894L94.307 71.6355C94.1784 71.6102 94.0783 71.6355 94.0211 71.6987C93.9639 71.7619 93.9782 71.8504 94.0354 71.9389C94.1355 72.1158 94.4071 72.5203 94.8217 73.1397L95.0648 73.519C95.0934 73.5569 95.122 73.5948 95.1506 73.6074C95.2364 73.658 95.3365 73.6327 95.4223 73.519L96.4088 72.3054C96.5089 72.1664 96.5232 72.0779 96.4374 72.0273Z" fill="white"/>
<path d="M96.6521 64.9608L101.428 63.3302C101.513 63.2922 101.571 63.2669 101.585 63.229C101.599 63.1911 101.585 63.1532 101.513 63.1405L98.1677 61.8638L99.097 59.9551L105.431 62.3821L104.644 63.9875L99.7976 65.6561C99.7118 65.6813 99.6689 65.7193 99.6403 65.7572C99.6117 65.7951 99.6403 65.8204 99.6975 65.8457L103.1 67.1477L102.171 69.0564L95.8372 66.6294L96.6521 64.9608Z" fill="white"/>
<path d="M100.441 54.8106C100.713 53.597 101.199 52.7628 101.899 52.333C102.6 51.9032 103.429 51.7641 104.416 51.9411L104.816 52.0169C105.803 52.1939 106.517 52.5984 106.961 53.2431C107.404 53.8878 107.49 54.8106 107.218 56.0241L106.346 59.8163L99.5688 58.6028L100.441 54.8106ZM105.316 54.5451C105.159 54.2923 104.845 54.128 104.344 54.0395L103.944 53.9636C103.458 53.8751 103.086 53.9257 102.829 54.1153C102.586 54.3049 102.4 54.6462 102.285 55.1519L101.957 56.5929C101.928 56.7067 101.942 56.7825 101.985 56.8457C102.028 56.9089 102.114 56.9468 102.228 56.9595L104.63 57.3893C104.759 57.4146 104.845 57.4019 104.916 57.364C104.988 57.3261 105.031 57.2502 105.045 57.1491L105.374 55.7081C105.488 55.1771 105.474 54.7979 105.316 54.5451Z" fill="white"/>
<path d="M0 39.3378V33.7759L2.60217 36.0765L5.07566 33.8896L7.72072 36.2282L10.4373 33.8391V39.3378H0Z" fill="white"/>
<path d="M99.4255 39.3378V33.7759L102.028 36.0765L104.501 33.8896L107.146 36.2282L109.863 33.8391V39.3378H99.4255Z" fill="white"/>
</svg>
