<svg width="23" height="22" viewBox="0 0 23 22" fill="none" xmlns="http://www.w3.org/2000/svg">
<g clip-path="url(#clip0)">
<path d="M11.1779 22C17.253 22 22.1779 17.0751 22.1779 11C22.1779 4.92487 17.253 0 11.1779 0C5.10272 0 0.177856 4.92487 0.177856 11C0.177856 17.0751 5.10272 22 11.1779 22Z" fill="white"/>
<path d="M11.1778 4.61133C9.44291 4.61133 9.22533 4.61869 8.54402 4.64977C7.86405 4.68079 7.39964 4.78879 6.99331 4.94671C6.57326 5.10995 6.21699 5.32837 5.86183 5.68351C5.50671 6.03867 5.28827 6.39494 5.12503 6.81501C4.96711 7.22134 4.85911 7.68573 4.82809 8.36568C4.79701 9.04704 4.78967 9.26459 4.78967 10.9995C4.78967 12.7344 4.79701 12.952 4.82809 13.6333C4.85911 14.3133 4.96711 14.7777 5.12503 15.184C5.28827 15.6041 5.50671 15.9603 5.86183 16.3155C6.21699 16.6706 6.57326 16.8891 6.99331 17.0523C7.39964 17.2102 7.86405 17.3182 8.54402 17.3492C9.22533 17.3803 9.44291 17.3877 11.1778 17.3877C12.9127 17.3877 13.1303 17.3803 13.8116 17.3492C14.4916 17.3182 14.956 17.2102 15.3623 17.0523C15.7824 16.8891 16.1387 16.6706 16.4938 16.3155C16.8489 15.9603 17.0674 15.6041 17.2306 15.184C17.3885 14.7777 17.4965 14.3133 17.5276 13.6333C17.5586 12.952 17.566 12.7344 17.566 10.9995C17.566 9.26459 17.5586 9.04704 17.5276 8.36568C17.4965 7.68573 17.3885 7.22135 17.2306 6.81501C17.0674 6.39494 16.8489 6.03867 16.4938 5.68351C16.1387 5.32837 15.7824 5.10995 15.3623 4.94671C14.956 4.78879 14.4916 4.68079 13.8116 4.64977C13.1303 4.61869 12.9127 4.61133 11.1778 4.61133ZM11.1778 5.76235C12.8835 5.76235 13.0856 5.76887 13.7592 5.79961C14.382 5.828 14.7203 5.93207 14.9454 6.01956C15.2435 6.13545 15.4564 6.27387 15.6799 6.49742C15.9034 6.72094 16.0419 6.93375 16.1577 7.23194C16.2453 7.45705 16.3493 7.79528 16.3777 8.41814C16.4085 9.09173 16.415 9.2938 16.415 10.9995C16.415 12.7052 16.4085 12.9073 16.3777 13.5809C16.3493 14.2037 16.2453 14.542 16.1577 14.7671C16.0419 15.0653 15.9034 15.2781 15.6799 15.5016C15.4564 15.7251 15.2435 15.8636 14.9454 15.9794C14.7203 16.0669 14.382 16.171 13.7592 16.1994C13.0857 16.2301 12.8837 16.2367 11.1778 16.2367C9.47197 16.2367 9.26998 16.2301 8.59644 16.1994C7.97363 16.171 7.63535 16.0669 7.41029 15.9794C7.1121 15.8636 6.89927 15.7251 6.67574 15.5016C6.45222 15.2781 6.31377 15.0653 6.19786 14.7671C6.11039 14.542 6.00632 14.2037 5.97793 13.5809C5.94719 12.9073 5.94067 12.7052 5.94067 10.9995C5.94067 9.2938 5.94719 9.09173 5.97793 8.41814C6.00632 7.79528 6.11039 7.45705 6.19786 7.23194C6.31377 6.93375 6.45217 6.72094 6.67574 6.49742C6.89927 6.27387 7.11209 6.13545 7.41029 6.01956C7.63535 5.93207 7.97363 5.828 8.59644 5.79961C9.27008 5.76887 9.47212 5.76235 11.1778 5.76235ZM11.1778 7.71911C9.36608 7.71911 7.89743 9.18776 7.89743 10.9995C7.89743 12.8112 9.36609 14.2799 11.1778 14.2799C12.9896 14.2799 14.4582 12.8112 14.4582 10.9995C14.4582 9.18776 12.9896 7.71911 11.1778 7.71911ZM11.1778 13.1289C10.0018 13.1289 9.04842 12.1755 9.04842 10.9995C9.04842 9.82347 10.0018 8.8701 11.1778 8.8701C12.3539 8.8701 13.3072 9.82347 13.3072 10.9995C13.3072 12.1755 12.3539 13.1289 11.1778 13.1289ZM15.3544 7.58948C15.3544 8.01286 15.0112 8.35606 14.5878 8.35606C14.1645 8.35606 13.8213 8.01286 13.8213 7.58948C13.8213 7.16612 14.1645 6.8229 14.5878 6.8229C15.0112 6.8229 15.3544 7.16612 15.3544 7.58948Z" fill="#1A1A1B"/>
</g>
<defs>
<clipPath id="clip0">
<rect width="22" height="22" fill="white" transform="translate(0.177856)"/>
</clipPath>
</defs>
</svg>
