<svg width="48" height="48" viewBox="0 0 48 48" fill="none" xmlns="http://www.w3.org/2000/svg">
<circle cx="24" cy="24" r="24" fill="#FBDEE7"/>
<path d="M36.7943 13.4399H12.1656C11.74 13.4404 11.3319 13.6068 11.0309 13.9025C10.7299 14.1982 10.5606 14.5991 10.5601 15.0172V29.8834C10.5606 30.3016 10.7299 30.7025 11.0309 30.9982C11.3319 31.2939 11.74 31.4602 12.1656 31.4607H23.3197C23.205 32.8738 22.6998 33.3235 21.9125 33.7761C20.7035 34.4683 19.0166 34.9115 18.0912 35.1156C17.8969 35.1593 17.7236 35.2672 17.6005 35.4213C17.4773 35.5753 17.4117 35.7662 17.4145 35.9621V36.3505C17.4142 36.3673 17.4173 36.3841 17.4237 36.3998C17.43 36.4155 17.4395 36.4297 17.4516 36.4418C17.4636 36.4538 17.478 36.4634 17.4938 36.47C17.5097 36.4765 17.5267 36.4799 17.5438 36.4799H31.4161C31.4334 36.4803 31.4506 36.4772 31.4666 36.4708C31.4826 36.4644 31.4972 36.4548 31.5093 36.4427C31.5215 36.4306 31.5309 36.4161 31.5372 36.4003C31.5434 36.3844 31.5463 36.3675 31.5456 36.3505V35.9621C31.5485 35.7669 31.4834 35.5766 31.3613 35.4227C31.2391 35.2688 31.0671 35.1604 30.8738 35.1156C29.9433 34.9114 28.2566 34.4683 27.0475 33.7761C26.2645 33.3235 25.7561 32.8738 25.6406 31.4607H36.7943C37.22 31.4602 37.6282 31.2939 37.9292 30.9982C38.2302 30.7025 38.3995 30.3016 38.4001 29.8834V15.0172C38.3995 14.599 38.2302 14.1981 37.9292 13.9024C37.6282 13.6067 37.22 13.4404 36.7943 13.4399V13.4399ZM36.8534 29.8834C36.8534 29.8988 36.8471 29.9135 36.8361 29.9244C36.825 29.9352 36.81 29.9413 36.7943 29.9413H12.1656C12.15 29.9413 12.135 29.9352 12.124 29.9243C12.113 29.9135 12.1067 29.8988 12.1067 29.8834V15.0172C12.1067 15.0019 12.113 14.9872 12.124 14.9763C12.135 14.9655 12.15 14.9594 12.1656 14.9594H36.7943C36.81 14.9593 36.825 14.9654 36.8361 14.9763C36.8471 14.9871 36.8534 15.0019 36.8534 15.0172V29.8834Z" fill="#EC5876"/>
</svg>
