<svg width="34" height="34" viewBox="0 0 34 34" fill="none" xmlns="http://www.w3.org/2000/svg">
<path fill-rule="evenodd" clip-rule="evenodd" d="M34 17C34 26.3888 26.3888 34 17 34C7.61116 34 0 26.3888 0 17C0 7.61116 7.61116 0 17 0C26.3888 0 34 7.61116 34 17ZM12.9296 7.18681C13.9825 7.13878 14.3188 7.12741 17 7.12741C19.6812 7.12741 20.0175 7.13878 21.0704 7.18681C22.1213 7.23476 22.839 7.40167 23.4669 7.64572C24.1161 7.89801 24.6667 8.23556 25.2156 8.78441C25.7644 9.3333 26.102 9.88389 26.3543 10.5331C26.5984 11.1611 26.7653 11.8788 26.8132 12.9296C26.8613 13.9826 26.8726 14.3188 26.8726 17.0001C26.8726 19.6813 26.8613 20.0175 26.8132 21.0705C26.7653 22.1213 26.5984 22.839 26.3543 23.467C26.102 24.1162 25.7644 24.6668 25.2156 25.2157C24.6667 25.7645 24.1161 26.1021 23.4669 26.3544C22.839 26.5984 22.1213 26.7653 21.0704 26.8133C20.0175 26.8613 19.6812 26.8727 17 26.8727C14.3188 26.8727 13.9825 26.8613 12.9296 26.8133C11.8787 26.7653 11.161 26.5984 10.533 26.3544C9.88386 26.1021 9.33327 25.7645 8.78438 25.2157C8.23556 24.6668 7.89797 24.1162 7.64569 23.467C7.40163 22.839 7.23473 22.1213 7.18677 21.0705C7.13875 20.0175 7.12741 19.6813 7.12741 17.0001C7.12741 14.3188 7.13875 13.9826 7.18677 12.9296C7.23473 11.8787 7.40163 11.1611 7.64569 10.5331C7.89797 9.88389 8.23556 9.3333 8.78438 8.78441C9.33327 8.23556 9.88386 7.89801 10.533 7.64572C11.161 7.40166 11.8787 7.23476 12.9296 7.18681ZM20.9894 8.96384C19.9483 8.91633 19.6361 8.90625 17 8.90625C14.3639 8.90625 14.0517 8.91633 13.0106 8.96384C12.0481 9.00772 11.5253 9.16855 11.1774 9.30377C10.7166 9.48286 10.3877 9.69679 10.0422 10.0423C9.69672 10.3877 9.48283 10.7166 9.3037 11.1774C9.16851 11.5253 9.00768 12.0481 8.96381 13.0107C8.9163 14.0517 8.90622 14.3639 8.90622 17.0001C8.90622 19.6361 8.9163 19.9484 8.96381 20.9894C9.00769 21.952 9.16851 22.4747 9.3037 22.8226C9.48283 23.2835 9.6968 23.6123 10.0422 23.9578C10.3877 24.3033 10.7166 24.5172 11.1774 24.6963C11.5253 24.8315 12.0481 24.9924 13.0106 25.0362C14.0515 25.0837 14.3637 25.0938 17 25.0938C19.6363 25.0938 19.9485 25.0837 20.9894 25.0362C21.9519 24.9924 22.4747 24.8315 22.8226 24.6963C23.2834 24.5172 23.6123 24.3033 23.9578 23.9578C24.3032 23.6123 24.5172 23.2835 24.6962 22.8226C24.8315 22.4747 24.9923 21.952 25.0362 20.9894C25.0837 19.9484 25.0938 19.6361 25.0938 17.0001C25.0938 14.3639 25.0837 14.0517 25.0362 13.0107C24.9923 12.0481 24.8315 11.5253 24.6962 11.1774C24.5172 10.7166 24.3032 10.3877 23.9578 10.0423C23.6123 9.69679 23.2834 9.48286 22.8226 9.30377C22.4747 9.16855 21.9519 9.00772 20.9894 8.96384ZM11.9303 17.0001C11.9303 14.2001 14.2 11.9303 17 11.9303C19.8 11.9303 22.0697 14.2001 22.0697 17.0001C22.0697 19.8 19.8 22.0697 17 22.0697C14.2 22.0697 11.9303 19.8 11.9303 17.0001ZM13.7091 17.0001C13.7091 18.8175 15.1825 20.2909 17 20.2909C18.8175 20.2909 20.2909 18.8175 20.2909 17.0001C20.2909 15.1825 18.8175 13.7091 17 13.7091C15.1825 13.7091 13.7091 15.1825 13.7091 17.0001ZM22.27 12.9147C22.9243 12.9147 23.4548 12.3843 23.4548 11.73C23.4548 11.0757 22.9243 10.5453 22.27 10.5453C21.6158 10.5453 21.0853 11.0757 21.0853 11.73C21.0853 12.3843 21.6158 12.9147 22.27 12.9147Z" fill="white"/>
<path d="M17 8.8018C19.6701 8.8018 19.9864 8.81198 21.0409 8.8601C22.0158 8.90459 22.5453 9.06748 22.8977 9.20443C23.3645 9.38583 23.6976 9.60254 24.0475 9.95246C24.3975 10.3024 24.6142 10.6355 24.7956 11.1023C24.9325 11.4547 25.0954 11.9842 25.1399 12.9591C25.188 14.0136 25.1982 14.3299 25.1982 17C25.1982 19.6701 25.188 19.9864 25.1399 21.0409C25.0954 22.0158 24.9325 22.5453 24.7956 22.8977C24.6142 23.3645 24.3975 23.6976 24.0475 24.0475C23.6976 24.3975 23.3645 24.6142 22.8977 24.7956C22.5453 24.9325 22.0158 25.0954 21.0409 25.1399C19.9865 25.188 19.6703 25.1982 17 25.1982C14.3297 25.1982 14.0135 25.188 12.9591 25.1399C11.9842 25.0954 11.4547 24.9325 11.1023 24.7956C10.6355 24.6142 10.3024 24.3975 9.95247 24.0475C9.60255 23.6976 9.38582 23.3645 9.20442 22.8977C9.06748 22.5453 8.90458 22.0158 8.86009 21.0409C8.81198 19.9864 8.8018 19.6701 8.8018 17C8.8018 14.3299 8.81198 14.0136 8.8601 12.9591C8.90459 11.9842 9.06748 11.4547 9.20443 11.1023C9.38582 10.6355 9.60254 10.3024 9.95246 9.95247C10.3024 9.60254 10.6355 9.38582 11.1023 9.20443C11.4547 9.06748 11.9842 8.90459 12.9591 8.86009C14.0136 8.81198 14.3299 8.8018 17 8.8018ZM17 7C14.2842 7 13.9436 7.0115 12.877 7.06017C11.8126 7.10873 11.0857 7.27778 10.4496 7.52499C9.79203 7.78054 9.23434 8.12246 8.6784 8.6784C8.12247 9.23434 7.78054 9.79203 7.52499 10.4496C7.27778 11.0857 7.10873 11.8126 7.06017 12.877C7.0115 13.9436 7 14.2842 7 17C7 19.7158 7.0115 20.0564 7.06017 21.123C7.10873 22.1874 7.27778 22.9143 7.52499 23.5504C7.78054 24.208 8.12247 24.7657 8.6784 25.3216C9.23434 25.8775 9.79203 26.2195 10.4496 26.475C11.0857 26.7222 11.8126 26.8913 12.877 26.9398C13.9436 26.9885 14.2842 27 17 27C19.7158 27 20.0564 26.9885 21.123 26.9398C22.1874 26.8913 22.9143 26.7222 23.5504 26.475C24.208 26.2195 24.7657 25.8775 25.3216 25.3216C25.8775 24.7657 26.2195 24.208 26.475 23.5504C26.7222 22.9143 26.8913 22.1874 26.9398 21.123C26.9885 20.0564 27 19.7158 27 17C27 14.2842 26.9885 13.9436 26.9398 12.877C26.8913 11.8126 26.7222 11.0857 26.475 10.4496C26.2195 9.79203 25.8775 9.23434 25.3216 8.6784C24.7657 8.12247 24.208 7.78054 23.5504 7.52499C22.9143 7.27778 22.1874 7.10873 21.123 7.06017C20.0564 7.0115 19.7158 7 17 7Z" fill="url(#paint0_linear)"/>
<path d="M16.9999 11.8647C14.1638 11.8647 11.8647 14.1638 11.8647 16.9999C11.8647 19.8359 14.1638 22.135 16.9999 22.135C19.8359 22.135 22.135 19.8359 22.135 16.9999C22.135 14.1638 19.8359 11.8647 16.9999 11.8647ZM16.9999 20.3332C15.1589 20.3332 13.6665 18.8408 13.6665 16.9999C13.6665 15.1589 15.1589 13.6665 16.9999 13.6665C18.8408 13.6665 20.3332 15.1589 20.3332 16.9999C20.3332 18.8408 18.8408 20.3332 16.9999 20.3332Z" fill="url(#paint1_linear)"/>
<path d="M22.3379 12.8619C23.0007 12.8619 23.5379 12.3247 23.5379 11.6619C23.5379 10.9992 23.0007 10.4619 22.3379 10.4619C21.6752 10.4619 21.1379 10.9992 21.1379 11.6619C21.1379 12.3247 21.6752 12.8619 22.3379 12.8619Z" fill="url(#paint2_linear)"/>
<defs>
<linearGradient id="paint0_linear" x1="15.1373" y1="22.3688" x2="19.2504" y2="10.5134" gradientUnits="userSpaceOnUse">
<stop stop-color="#FBB03B"/>
<stop offset="0.495735" stop-color="#D4145A"/>
<stop offset="1" stop-color="#93278F"/>
</linearGradient>
<linearGradient id="paint1_linear" x1="15.1372" y1="22.3687" x2="19.2503" y2="10.5133" gradientUnits="userSpaceOnUse">
<stop stop-color="#FBB03B"/>
<stop offset="0.495735" stop-color="#D4145A"/>
<stop offset="1" stop-color="#93278F"/>
</linearGradient>
<linearGradient id="paint2_linear" x1="18.2488" y1="23.4483" x2="22.3619" y2="11.5929" gradientUnits="userSpaceOnUse">
<stop stop-color="#FBB03B"/>
<stop offset="0.495735" stop-color="#D4145A"/>
<stop offset="1" stop-color="#93278F"/>
</linearGradient>
</defs>
</svg>
