<svg width="51" height="69" viewBox="0 0 51 69" fill="none" xmlns="http://www.w3.org/2000/svg">
<path d="M50.1003 26.4357L49.152 24.6723L35.8749 0L45.0325 24.3463L25.0576 31.785L23.0275 31.0293C22.1088 30.6885 21.19 30.3477 20.2713 29.992L17.5151 28.9548L16.137 28.4361L14.7589 27.9027L9.24656 25.7837C8.04628 25.3243 6.86083 24.8501 5.67537 24.3463L14.6256 0.0148191L1.141 24.5982L0 26.6876L2.29682 27.3988C4.17873 27.9916 6.03101 28.6732 7.86846 29.3697L8.62419 29.666L6.84601 34.4078L6.04583 36.5268L8.01664 36.8973L9.75038 37.2233L8.40192 41.4465L7.98701 42.7653L8.96501 43.4618L13.4401 46.6625L12.8326 54.3087L24.9835 68.712L37.6827 54.3235L37.0603 46.6625L41.565 43.4618L42.543 42.7653L42.1281 41.4465L40.7797 37.2233L42.5134 36.8973L44.4842 36.5268L43.684 34.4078L41.8614 29.6216L48.1147 27.2062L50.1003 26.4357ZM39.4609 34.1856L29.7401 39.2682C30.1402 40.4981 31.4294 41.2094 32.6889 40.913L32.8668 40.8686C33.6373 40.6759 34.2745 40.1425 34.5709 39.4016L35.045 38.2754L36.9566 37.9198L38.1272 41.565L27.7248 53.1529L27.6508 53.2121C27.6508 53.2121 27.6508 53.2121 27.6656 53.227L27.7397 53.301H27.7545C28.5398 54.0568 29.7549 54.1457 30.644 53.4937L30.8663 53.3307C31.4442 52.901 31.785 52.2341 31.785 51.508V50.4263L33.8151 48.989L34.1559 53.1381L25.0724 63.4219L16.4186 53.1529L16.7594 48.9741L18.7747 50.4115V51.5229C18.7747 52.2341 19.1155 52.9158 19.6934 53.3455L19.9157 53.5085C20.8048 54.1605 22.0347 54.0716 22.82 53.301L22.8497 53.2714C22.8645 53.2566 22.8793 53.2418 22.8941 53.227L12.4325 41.565L13.6031 37.9198L15.5147 38.2754L15.9888 39.4016C16.2852 40.1277 16.9224 40.6759 17.6929 40.8686L17.8707 40.913C19.1303 41.2242 20.4195 40.4981 20.8196 39.2682L11.0988 34.1708L12.2695 31.0441L13.4253 31.4887L14.8034 32.0221L16.1815 32.5556L18.9228 33.6373C19.8416 33.9929 20.7455 34.3634 21.6642 34.719L24.4056 35.8156L25.1168 36.0971L25.8429 35.8156L38.3347 30.9848L39.4609 34.1856Z" fill="white"/>
</svg>
